<svg width="115" height="115" viewBox="0 0 115 115" fill="none" xmlns="http://www.w3.org/2000/svg">
<path d="M60.9998 66.999L70.9998 66.999L70.9998 76.999M52.9998 50.999L42.9998 50.999L42.9998 40.999M71.8349 53.0058C70.7135 50.2303 68.836 47.8251 66.4158 46.0635C63.9955 44.3019 61.1301 43.2541 58.1443 43.04C55.1585 42.826 52.1719 43.4538 49.5251 44.8523C46.8784 46.2507 44.6774 48.3641 43.1716 50.9513M42.1638 64.9932C43.2852 67.7686 45.1627 70.1739 47.5829 71.9355C50.0031 73.6971 52.8715 74.7436 55.8573 74.9576C58.8431 75.1716 61.8273 74.5439 64.474 73.1455C67.1207 71.7471 69.3203 69.634 70.826 67.0469" stroke="white" stroke-width="3.94276" stroke-linecap="round" stroke-linejoin="round"/>
</svg>
