<svg width="1535" height="241" viewBox="0 0 1535 241" fill="none" xmlns="http://www.w3.org/2000/svg">
<path d="M135.058 42.8232C120.94 42.8232 111.529 52.2348 111.529 66.3524V84.2346C114.823 83.764 123.293 83.764 126.587 83.764C200.94 83.764 243.292 135.058 243.292 211.763V235.292C243.292 238.116 240.939 240.469 238.116 240.469H210.822C207.998 240.469 205.646 238.116 205.646 235.292V211.763C205.646 158.587 179.293 121.411 126.587 121.411C71.0584 121.411 37.6469 155.293 37.6469 211.292V235.292C37.6469 238.116 35.2939 240.469 32.4704 240.469H5.17653C2.35303 240.469 0.000103709 238.116 0.000103709 235.292V10.3528C0.000103709 7.52931 2.35303 5.17637 5.17653 5.17637H32.4704C35.2939 5.17637 37.6469 7.52931 37.6469 10.3528V119.528C43.2939 110.117 58.8232 98.3521 73.8819 93.1757V61.1759C73.8819 27.7644 96.4699 5.17637 129.881 5.17637H234.822C237.645 5.17637 239.998 7.52931 239.998 10.3528V37.6467C239.998 40.4702 237.645 42.8232 234.822 42.8232H135.058ZM266.799 127.528C266.799 51.7642 311.034 0.470538 387.74 0.470538H389.151C465.857 0.470538 510.092 51.7642 510.092 127.528V235.292C510.092 238.116 507.739 240.469 504.915 240.469H477.621C474.798 240.469 472.445 238.116 472.445 235.292V165.646H304.446V235.292C304.446 238.116 302.093 240.469 299.27 240.469H271.976C269.152 240.469 266.799 238.116 266.799 235.292V127.528ZM472.445 127.999C472.445 74.8229 441.857 38.1173 388.681 38.1173C335.034 38.1173 304.446 74.3523 304.446 127.999H472.445ZM776.974 191.528C776.974 194.351 774.621 196.704 771.797 196.704H571.328V235.292C571.328 238.116 568.975 240.469 566.152 240.469H538.858C536.034 240.469 533.682 238.116 533.682 235.292V10.3528C533.682 7.52931 536.034 5.17637 538.858 5.17637H566.152C568.975 5.17637 571.328 7.52931 571.328 10.3528V39.529C580.74 23.9998 612.74 -5.72473e-05 660.269 -5.72473e-05C736.974 -5.72473e-05 776.974 55.0583 776.974 131.764V191.528ZM571.328 159.058H739.327V131.764C739.327 78.5876 712.974 37.6467 660.269 37.6467C608.034 37.6467 571.328 71.5288 571.328 131.293V159.058ZM1211.65 5.17637C1245.06 5.17637 1267.65 28.235 1267.65 61.6465V235.292C1267.65 238.116 1265.3 240.469 1262.48 240.469H1235.18C1232.36 240.469 1230.01 238.116 1230.01 235.292V66.823C1230.01 52.7054 1220.59 42.8232 1206.48 42.8232H1173.53H1150.95H1139.18H1128.83C1114.71 42.8232 1105.3 52.2348 1105.3 66.3524V115.293V117.175V128.47V131.293V184.94C1105.3 218.351 1083.18 240.469 1049.77 240.469H1038.01H1030.01H1018.24C984.831 240.469 962.713 218.351 962.713 184.94V131.293V128.47V117.175V115.293V66.3524C962.713 52.2348 953.301 42.8232 939.184 42.8232H928.831H917.066H894.478H861.537C847.42 42.8232 838.008 52.7054 838.008 66.823V235.292C838.008 238.116 835.655 240.469 832.832 240.469H805.538C802.714 240.469 800.361 238.116 800.361 235.292V61.6465C800.361 28.235 822.949 5.17637 856.361 5.17637H894.478H917.066H928.831H944.831C978.242 5.17637 1000.36 27.2939 1000.36 60.7054V115.293V117.175V128.47V131.293V179.293C1000.36 193.41 1009.77 202.822 1023.89 202.822H1030.01H1038.01H1044.12C1058.24 202.822 1067.65 193.41 1067.65 179.293V131.293V128.47V117.175V115.293V60.7054C1067.65 27.2939 1089.77 5.17637 1123.18 5.17637H1139.18H1150.95H1173.53H1211.65ZM1291.06 127.528C1291.06 51.7642 1335.29 0.470538 1412 0.470538H1413.41C1490.11 0.470538 1534.35 51.7642 1534.35 127.528V235.292C1534.35 238.116 1532 240.469 1529.17 240.469H1501.88C1499.05 240.469 1496.7 238.116 1496.7 235.292V165.646H1328.7V235.292C1328.7 238.116 1326.35 240.469 1323.53 240.469H1296.23C1293.41 240.469 1291.06 238.116 1291.06 235.292V127.528ZM1496.7 127.999C1496.7 74.8229 1466.11 38.1173 1412.94 38.1173C1359.29 38.1173 1328.7 74.3523 1328.7 127.999H1496.7Z" fill="url(#paint0_linear_569_400)"/>
<defs>
<linearGradient id="paint0_linear_569_400" x1="-14.1174" y1="99.4686" x2="1543.88" y2="99.4686" gradientUnits="userSpaceOnUse">
<stop stop-color="#383636"/>
<stop offset="1" stop-color="#838383"/>
</linearGradient>
</defs>
</svg>
