<svg width="33" height="33" viewBox="0 0 33 33" fill="none" xmlns="http://www.w3.org/2000/svg">
<path d="M6.875 11.2753L6.875 21.7253C6.875 23.2654 6.875 24.0344 7.17473 24.6227C7.43838 25.1401 7.85877 25.5619 8.37622 25.8256C8.9639 26.125 9.73362 26.125 11.2708 26.125L21.7299 26.125C23.2671 26.125 24.0357 26.125 24.6233 25.8256C25.1408 25.5619 25.5619 25.1401 25.8256 24.6227C26.125 24.035 26.125 23.2664 26.125 21.7292L26.125 11.2708C26.125 9.73362 26.125 8.9639 25.8256 8.37622C25.5619 7.85877 25.1408 7.43838 24.6233 7.17473C24.0351 6.875 23.2654 6.875 21.7253 6.875L11.2753 6.875C9.73512 6.875 8.96448 6.875 8.37622 7.17473C7.85877 7.43838 7.43838 7.85877 7.17473 8.37622C6.875 8.96448 6.875 9.73512 6.875 11.2753Z" stroke="black" stroke-width="2.07692" stroke-linecap="round" stroke-linejoin="round"/>
</svg>
